<svg xmlns="http://www.w3.org/2000/svg" viewBox="0 0 173.22 173.35"><title>Phone</title><g id="Layer_2" data-name="Layer 2"><g id="Layer_1-2" data-name="Layer 1"><path d="M65.46,66.64a176.41,176.41,0,0,0,41.23,41.25c3.12-3.14,6.33-6.16,9.29-9.4,3.53-3.85,7.31-4.72,12.31-2.74,12.6,5,25.36,9.58,38.06,14.33,5.44,2,6.87,4.1,6.87,9.89,0,27-19,49-45.76,52.81a51,51,0,0,1-32.86-6C59.42,146.9,31.51,119.43,10.18,85.16,5.51,77.66,1.8,69.87.58,61c-2.23-16.2,1.9-30.56,12.53-42.95C24.07,5.27,38.2-.42,54.92,0a7.63,7.63,0,0,1,7.52,5.17Q70.35,26.08,78.15,47c1.32,3.52.24,6.52-2.32,9.1C72.44,59.54,69.06,63,65.46,66.64ZM49.64,15.85c-2,.32-3.84.51-5.69.94C20.13,22.26,8.17,50.36,20.75,72c19.8,34.06,46.7,61.15,81,80.71a35.44,35.44,0,0,0,29,3.24c14.44-4.51,23.24-14.3,26.33-29.17.48-2.29.1-3.5-2.42-4.38-9.11-3.18-18.12-6.64-27.12-10.12a3,3,0,0,0-3.83.86c-3.14,3.34-6.42,6.54-9.66,9.78-3.76,3.75-7.22,4.06-11.6,1.14A194.13,194.13,0,0,1,49.15,70.89c-2.94-4.33-2.61-7.86,1.12-11.62,3.4-3.44,6.87-6.8,10.22-10.28a2.73,2.73,0,0,0,.67-2.27C57.42,36.49,53.57,26.3,49.64,15.85Z"/></g></g></svg>