
		<svg width="3224.453960326694" height="2368.237661299741" xmlns="http://www.w3.org/2000/svg" xmlns:xlink="http://www.w3.org/1999/xlink" version="1.1">
			<g transform="scale(11.222698016334697) translate(10, 10)">
				<g id="main_text" rel="mainfill" name="main_text" xmlns:name="mainText_mainfill" transform="translate(60.65789604187012, 57.52604293823242)" fill="#000000"><path fill="#000000" d="M19.368 23.473999999999997 q4.631578947 0 8.578947368 2.026315789 t6.4737 5.6053 l-2.3158 1.6316 q-1.315789474 -1.842105263 -3.368421053 -3.342105263 t-4.3947 -2.2632 t-4.9737 -0.76316 q-4.210526316 0 -7.842105263 2.078947368 t-5.7368 5.7632 t-2.1053 7.8421 q0 4.263157895 2.105263158 7.894736842 t5.7368 5.7368 t7.8421 2.1053 q5.315789474 0 9.421052632 -3.078947368 t5.6316 -7.9211 l-14.895 0 l1.8947 -2.8947 l16.474 0 q-0.4210526316 4.684210526 -2.973684211 8.526315789 t-6.6053 6.0526 t-8.9474 2.2105 q-5.105263158 0 -9.342105263 -2.5 t-6.7368 -6.7632 t-2.5 -9.3684 q0 -3.736842105 1.421052632 -7.157894737 t4.0263 -6.0263 t6 -4 t7.1316 -1.3947 z M56.00021052631578 24.211 l2.8947 0 l0 26.474 q0 2.473684211 -1.263157895 4.631578947 t-3.4211 3.4211 t-4.6316 1.2632 t-4.6316 -1.2632 t-3.4211 -3.4211 t-1.2632 -4.6316 l0 -26.474 l2.8947 0 l0 26.474 q0 2.473684211 1.815789474 4.447368421 t4.6053 1.9737 q2.526315789 0 4.473684211 -1.789473684 t1.9474 -4.6316 l0 -26.474 z M62.05258421052631 60 l0 -35.789 l2.8947 0 l0 35.789 l-2.8947 0 z M76.00001578947368 57.1053 q4.105263158 0 7.552631579 -2 t5.4474 -5.4737 t2 -7.5263 q0 -3.052631579 -1.210526316 -5.868421053 t-3.1579 -4.7632 t-4.7632 -3.1579 t-5.8684 -1.2105 l-1.4737 0 l0 30 l1.4737 0 z M69.05261578947369 24.211 l6.9474 0 q3.789473684 0 7.026315789 1.394736842 t5.6579 3.8158 t3.8158 5.6579 t1.3947 7.0263 q0 4.842105263 -2.394736842 8.973684211 t-6.5263 6.5263 t-8.9737 2.3947 l-4.3684 0 l0 -32.895 l-4.3158 0 z M102.73681052631578 57.1053 l13.526 0 l0 2.8947 l-16.421 0 l0 -21.526 l-4.3684 0 l1.7368 -2.8947 l2.6316 0 l0 -11.368 l16.421 0 l0 2.8947 l-13.526 0 l0 8.4737 l8.5789 0 l0 2.8947 l-8.5789 0 l0 18.632 z M127.31580526315788 57.1053 q4.105263158 0 7.552631579 -2 t5.4474 -5.4737 t2 -7.5263 q0 -3.052631579 -1.210526316 -5.868421053 t-3.1579 -4.7632 t-4.7632 -3.1579 t-5.8684 -1.2105 l-1.4737 0 l0 30 l1.4737 0 z M120.3684052631579 24.211 l6.9474 0 q3.789473684 0 7.026315789 1.394736842 t5.6579 3.8158 t3.8158 5.6579 t1.3947 7.0263 q0 4.842105263 -2.394736842 8.973684211 t-6.5263 6.5263 t-8.9737 2.3947 l-4.3684 0 l0 -32.895 l-4.3158 0 z" style="fill: #000000;"/></g><g id="SvgjsG1009" rel="mainfill" name="main_text" xmlns:name="mainText_mainfill" transform="translate(-0.7894783020019531, 104.73713111877441)" fill="#000000"><path fill="#000000" d="M9.4737 57.1053 q4.105263158 0 7.552631579 -2 t5.4474 -5.4737 t2 -7.5263 q0 -3.052631579 -1.210526316 -5.868421053 t-3.1579 -4.7632 t-4.7632 -3.1579 t-5.8684 -1.2105 l-1.4737 0 l0 30 l1.4737 0 z M2.5263 24.211 l6.9474 0 q3.789473684 0 7.026315789 1.394736842 t5.6579 3.8158 t3.8158 5.6579 t1.3947 7.0263 q0 4.842105263 -2.394736842 8.973684211 t-6.5263 6.5263 t-8.9737 2.3947 l-4.3684 0 l0 -32.895 l-4.3158 0 z M35.578994736842105 47 l12.842 0 l0 -14.211 q0 -1.894736842 -0.9210526316 -3.368421053 t-2.3947 -2.2632 t-3.1053 -0.78947 q-2.842105263 0 -4.631578947 1.947368421 t-1.7895 4.4737 l0 14.211 z M35.578994736842105 49.894999999999996 l0 10.105 l-2.8947 0 l0 -10.105 l-3.7368 0 l1.7368 -2.8947 l2 0 l0 -14.211 q0 -2.473684211 1.263157895 -4.631578947 t3.4211 -3.4211 t4.6316 -1.2632 t4.6316 1.2632 t3.4211 3.4211 t1.2632 4.6316 l0 27.211 l-2.8947 0 l0 -10.105 l-12.842 0 z M61.315836842105256 44.053 l-8.4211 -19.842 l3.1579 0 l6.7368 15.842 l6.6842 -15.842 l3.1579 0 l-8.4211 19.842 l0 15.947 l-2.8947 0 l0 -15.947 z M82.1052789473684 57.1053 q4.105263158 0 7.552631579 -2 t5.4474 -5.4737 t2 -7.5263 q0 -3.052631579 -1.210526316 -5.868421053 t-3.1579 -4.7632 t-4.7632 -3.1579 t-5.8684 -1.2105 l-1.4737 0 l0 30 l1.4737 0 z M75.15787894736842 24.211 l6.9474 0 q3.789473684 0 7.026315789 1.394736842 t5.6579 3.8158 t3.8158 5.6579 t1.3947 7.0263 q0 4.842105263 -2.394736842 8.973684211 t-6.5263 6.5263 t-8.9737 2.3947 l-4.3684 0 l0 -32.895 l-4.3158 0 z M108.78947368421052 46.894999999999996 l3.4211 0 q4.421052632 0 7.157894737 -2.947368421 t2.7368 -6.9474 q0 -2.947368421 -1.421052632 -5.210526316 t-3.6842 -3.4737 t-4.7895 -1.2105 l-3.4211 0 l0 19.789 z M112.21047368421051 24.211 q3.421052632 0 6.394736842 1.710526316 t4.6842 4.6842 t1.7105 6.3947 q0 2.894736842 -1.315789474 5.578947368 t-3.6316 4.4737 t-5.0526 2.4211 l8.9474 10.526 l-3.8421 0 l-8.6316 -10.211 l-2.6842 0 l0 10.211 l-2.8947 0 l0 -32.895 l-4.3158 0 l1.7368 -2.8947 l8.8947 0 z M133.84207368421053 57.1053 l13.526 0 l0 2.8947 l-16.421 0 l0 -21.526 l-4.3684 0 l1.7368 -2.8947 l2.6316 0 l0 -11.368 l16.421 0 l0 2.8947 l-13.526 0 l0 8.4737 l8.5789 0 l0 2.8947 l-8.5789 0 l0 18.632 z M156.36846842105263 47 l12.842 0 l0 -14.211 q0 -1.894736842 -0.9210526316 -3.368421053 t-2.3947 -2.2632 t-3.1053 -0.78947 q-2.842105263 0 -4.631578947 1.947368421 t-1.7895 4.4737 l0 14.211 z M156.36846842105263 49.894999999999996 l0 10.105 l-2.8947 0 l0 -10.105 l-3.7368 0 l1.7368 -2.8947 l2 0 l0 -14.211 q0 -2.473684211 1.263157895 -4.631578947 t3.4211 -3.4211 t4.6316 -1.2632 t4.6316 1.2632 t3.4211 3.4211 t1.2632 4.6316 l0 27.211 l-2.8947 0 l0 -10.105 l-12.842 0 z M188.47321052631577 38 l13.211 -14.474 l0 36.474 l-2.8947 0 l0 -29 l-10.316 11.263 l-10.316 -11.263 l0 29 l-2.8947 0 l0 -36.474 z M204.84205789473683 60 l0 -35.789 l2.8947 0 l0 35.789 l-2.8947 0 z M213.7894894736842 34.525999999999996 l0 25.474 l-2.8947 0 l0 -36.474 l14.842 26.211 l0 -25.526 l2.8947 0 l0 36.474 z M249.57852631578945 23.473999999999997 q4.631578947 0 8.578947368 2.026315789 t6.4737 5.6053 l-2.3158 1.6316 q-1.315789474 -1.842105263 -3.368421053 -3.342105263 t-4.3947 -2.2632 t-4.9737 -0.76316 q-4.210526316 0 -7.842105263 2.078947368 t-5.7368 5.7632 t-2.1053 7.8421 q0 4.263157895 2.105263158 7.894736842 t5.7368 5.7368 t7.8421 2.1053 q5.315789474 0 9.421052632 -3.078947368 t5.6316 -7.9211 l-14.895 0 l1.8947 -2.8947 l16.474 0 q-0.4210526316 4.684210526 -2.973684211 8.526315789 t-6.6053 6.0526 t-8.9474 2.2105 q-5.105263158 0 -9.342105263 -2.5 t-6.7368 -6.7632 t-2.5 -9.3684 q0 -3.736842105 1.421052632 -7.157894737 t4.0263 -6.0263 t6 -4 t7.1316 -1.3947 z" style="fill: #000000;"/></g><g id="slogan_text" rel="mainfill" name="slogan_text" xmlns:name="sloganText_mainfill" transform="translate(33.90770721435547, 170.702130317688)" fill="#000000"><path fill="#000000" d="M5.04 10.06 q1.02 0 1.93 0.39 t1.59 1.06 t1.07 1.58 t0.39 1.93 q0 1.04 -0.39 1.95 t-1.07 1.58 t-1.59 1.06 t-1.93 0.39 l-4.54 0 l0 -9.94 l4.54 0 z M4.82 13.120000000000001 l-0.98 0 l0 0.28 l0 3.24 l0 0.28 l0.98 0 q0.38 0 0.73 -0.15 t0.6 -0.4 t0.4 -0.6 t0.15 -0.75 q0 -0.38 -0.15 -0.73 t-0.4 -0.6 t-0.6 -0.41 t-0.73 -0.16 z M13.68 10.06 l5.64 0 l2.66 9.94 l-3.78 0 l-0.32 -1.26 l-2.76 0 l-0.32 1.26 l-3.78 0 z M17.24 16.38 l-0.74 -2.76 l-0.74 2.76 l1.48 0 z M33.24 10.06 l-3.26 5.66 l0 4.28 l-3.72 0 l0 -4.28 l-3.28 -5.66 l3.74 0 l1.4 2.4 l1.4 -2.4 l3.72 0 z M38.78 10.06 q1.02 0 1.93 0.39 t1.59 1.06 t1.07 1.58 t0.39 1.93 q0 1.04 -0.39 1.95 t-1.07 1.58 t-1.59 1.06 t-1.93 0.39 l-4.54 0 l0 -9.94 l4.54 0 z M38.56 13.120000000000001 l-0.98 0 l0 0.28 l0 3.24 l0 0.28 l0.98 0 q0.38 0 0.73 -0.15 t0.6 -0.4 t0.4 -0.6 t0.15 -0.75 q0 -0.38 -0.15 -0.73 t-0.4 -0.6 t-0.6 -0.41 t-0.73 -0.16 z M44.760000000000005 10.06 l5.26 0 l0.02 0 q0.68 0 1.27 0.26 t1.03 0.7 t0.7 1.03 t0.26 1.27 q0 0.88 -0.43 1.61 t-1.13 1.15 l2.24 3.9 l-4.02 0 l-1.62 -2.8 l0 2.82 l-3.58 0 l0 -9.94 z M49.040000000000006 13.940000000000001 q0.28 0 0.46 -0.18 t0.18 -0.46 t-0.18 -0.47 t-0.46 -0.19 l-0.7 0 l0 1.3 l0.68 0 l0.02 0 z M58.480000000000004 17.46 l2.86 0 l0 2.54 l-6.36 0 l0 -9.94 l6.36 0 l0 2.54 l-2.86 0 l0 1.12 l2.86 0 l0 2.54 l-2.86 0 l0 1.2 z M65 10.06 l5.64 0 l2.66 9.94 l-3.78 0 l-0.32 -1.26 l-2.76 0 l-0.32 1.26 l-3.78 0 z M68.56 16.38 l-0.74 -2.76 l-0.74 2.76 l1.48 0 z M79.36000000000001 10.06 l1.64 5.28 l1.64 -5.28 l5.06 0 l0 9.94 l-3.7 0 l0 -4.9 l-1.52 4.9 l-2.98 0 l-1.52 -4.86 l0 4.86 l-3.68 0 l0 -9.94 l5.06 0 z  M97.20000000000002 20 l-3.5 0 l0 -9.94 l6.36 0 l0 2.54 l-2.86 0 l0 1.12 l2.86 0 l0 2.54 l-2.86 0 l0 3.74 z M106.38000000000002 9.72 q1.08 0 2.05 0.42 t1.69 1.14 t1.14 1.68 t0.42 2.04 q0 1.1 -0.42 2.07 t-1.14 1.69 t-1.69 1.14 t-2.05 0.42 q-1.1 0 -2.07 -0.42 t-1.69 -1.14 t-1.14 -1.69 t-0.42 -2.07 q0 -1.08 0.42 -2.04 t1.14 -1.68 t1.69 -1.14 t2.07 -0.42 z M106.38000000000002 13.02 q-0.42 0 -0.78 0.16 t-0.64 0.43 t-0.44 0.63 t-0.16 0.76 q0 0.42 0.16 0.78 t0.44 0.64 t0.64 0.44 t0.78 0.16 q0.4 0 0.77 -0.16 t0.64 -0.44 t0.43 -0.64 t0.16 -0.78 q0 -0.4 -0.16 -0.76 t-0.43 -0.63 t-0.64 -0.43 t-0.77 -0.16 z M112.68000000000002 10.06 l5.26 0 l0.02 0 q0.68 0 1.27 0.26 t1.03 0.7 t0.7 1.03 t0.26 1.27 q0 0.88 -0.43 1.61 t-1.13 1.15 l2.24 3.9 l-4.02 0 l-1.62 -2.8 l0 2.82 l-3.58 0 l0 -9.94 z M116.96000000000002 13.940000000000001 q0.28 0 0.46 -0.18 t0.18 -0.46 t-0.18 -0.47 t-0.46 -0.19 l-0.7 0 l0 1.3 l0.68 0 l0.02 0 z  M132.96 10.06 l1.64 5.28 l1.64 -5.28 l5.06 0 l0 9.94 l-3.7 0 l0 -4.9 l-1.52 4.9 l-2.98 0 l-1.52 -4.86 l0 4.86 l-3.68 0 l0 -9.94 l5.06 0 z M145.8 17.46 l2.86 0 l0 2.54 l-6.36 0 l0 -9.94 l6.36 0 l0 2.54 l-2.86 0 l0 1.12 l2.86 0 l0 2.54 l-2.86 0 l0 1.2 z M152.32000000000002 10.06 l5.64 0 l2.66 9.94 l-3.78 0 l-0.32 -1.26 l-2.76 0 l-0.32 1.26 l-3.78 0 z M155.88000000000002 16.38 l-0.74 -2.76 l-0.74 2.76 l1.48 0 z M171.54000000000002 10.06 l0 9.94 l-3.7 0 l0 0 l-2.54 -4.4 l0 4.4 l-3.68 0 l0 -9.94 l3.68 0 l0.02 0 l2.52 4.38 l0 -4.38 l3.7 0 z M172.54000000000002 10.06 l3.94 0 l0 9.94 l-3.94 0 l0 -9.94 l0 0 z M187.4 10.06 l0 9.94 l-3.7 0 l0 0 l-2.54 -4.4 l0 4.4 l-3.68 0 l0 -9.94 l3.68 0 l0.02 0 l2.52 4.38 l0 -4.38 l3.7 0 z M193.70000000000002 9.74 q1.48 0 2.69 0.73 t1.91 1.93 l-3.1 0.96 q-0.3 -0.28 -0.68 -0.43 t-0.82 -0.15 q-0.46 0 -0.87 0.18 t-0.71 0.48 t-0.48 0.71 t-0.18 0.87 t0.18 0.87 t0.48 0.72 t0.71 0.49 t0.87 0.18 q0.52 0 0.98 -0.23 t0.76 -0.61 l-1.96 0 l0 -2.38 l5.44 0 q0.04 0.24 0.06 0.48 t0.02 0.48 q0 1.1 -0.42 2.07 t-1.14 1.69 t-1.68 1.13 t-2.06 0.41 t-2.06 -0.41 t-1.68 -1.13 t-1.14 -1.69 t-0.42 -2.07 t0.42 -2.06 t1.14 -1.68 t1.68 -1.13 t2.06 -0.41 z" style="fill: #000000;"/></g><defs id="SvgjsDefs1002"/><g id="SvgjsG1011" fill="#000000" rel="mainfill" name="symbol" xmlns:name="symbol_mainfill" transform="translate(97.2439041426858, -2.9159483518739413) scale(0.7112069316341267)"><path xmlns="http://www.w3.org/2000/svg" d="M69,48.8v-4.9c2.6-3.6,4.1-8,4.1-12.8c0-11.3-8.6-20.6-19.5-21.8c0.2-0.3,0.3-0.7,0.3-1.1C53.9,7,53.1,6,52,5.7V4.1h-2v1.7  c-0.8,0.4-1.4,1.3-1.4,2.3c0,0.4,0.1,0.8,0.3,1.1c-11,1.2-19.5,10.5-19.5,21.8c0,4.5,1.4,8.6,3.7,12.1v5.6c-1.3,0.5-2.2,1.7-2.2,3.1  c0,1.8,1.5,3.3,3.3,3.3c1.8,0,3.3-1.5,3.3-3.3c0-1.5-1-2.8-2.4-3.2v-3c3.8,4.1,9.1,6.8,15,7.2V56c0,0,0,0,0,0.1c-1.7,0.5-3,2.1-3,4  c0,1.9,1.3,3.5,3,4v2c0,0,0,0.1,0,0.1c-1.2,0.5-2,1.6-2,2.9c0,1.3,0.7,2.3,1.8,2.8c-0.1,0.2-0.2,0.5-0.2,0.7c0,0.3,0.1,0.6,0.3,0.8  c0,0-0.1,0.1-0.1,0.1c-0.8,1.6-1.8,2-2.2,2.1c-0.2-0.4-0.7-0.6-1.2-0.5c-0.5,0.2-0.8,0.7-0.7,1.3c0.2,0.7,0.8,1.1,1.6,1.2  c0.1,0,0.1,0,0.2,0c0.4,0,0.9-0.1,1.4-0.4c-0.9,2-2,4.5-2.1,9.7c0,4.7,1.8,7,3,8.5c0.1,0.2,0.2,0.3,0.3,0.4l0.8,1.1l0.8-1.1  c0.2-0.3,0.4-0.5,0.6-0.8c1.2-1.5,2.7-3.4,2.8-8.1c0-4.9-1.2-7.6-2.2-9.7c0.4,0.2,0.8,0.3,1.2,0.3c0.1,0,0.1,0,0.2,0  c0.7-0.1,1.3-0.5,1.5-1.2c0.2-0.5-0.1-1.1-0.7-1.3c-0.4-0.1-0.9,0-1.1,0.4c-0.4-0.1-1.3-0.5-2.2-2c0.3-0.3,0.4-0.6,0.4-1  c0-0.2-0.1-0.4-0.1-0.6c1.2-0.4,2.1-1.6,2.1-3c0-1.5-1-2.7-2.4-3.1v-1.8c1.9-0.4,3.4-2.1,3.4-4.1s-1.5-3.8-3.4-4.1v-3  c5.9-0.2,11.2-2.7,15-6.7v2.6c-1.3,0.5-2.2,1.7-2.2,3.1c0,1.8,1.5,3.3,3.3,3.3c1.8,0,3.3-1.5,3.3-3.3C71.4,50.4,70.4,49.2,69,48.8z   M71.1,31.1c0,3.1-0.7,6.1-2,8.7c-0.5-1.8-1.9-5.8-4-8.7c2.1-2.9,3.5-7,4-8.7C70.4,25,71.1,27.9,71.1,31.1z M58.3,35.1  c1.4-0.2,2.8-0.6,4.1-1.4c0.5-0.3,0.9-0.6,1.4-1.1c1.5,2.3,2.7,5.5,3.4,7.5c-2.1,0.5-5.4,1-8.2,0.9c0.2-0.6,0.2-1.2,0.2-1.7  C59.2,37.8,58.8,36.4,58.3,35.1z M52.6,36.8c0.3-0.9,0.5-1.8,0.5-2.7C54,34.6,55,35,56,35.1c0.7,1.2,1.1,2.7,1.1,4.3  c0,0.4-0.1,0.9-0.2,1.4c-0.5-0.1-1-0.3-1.4-0.5c-1.3-0.8-2.4-1.9-3.1-3.1C52.5,37.1,52.5,36.9,52.6,36.8z M52.4,25  c0.7-1.2,1.7-2.3,3.1-3.1c0.4-0.2,0.9-0.4,1.4-0.5c0.1,0.5,0.2,1,0.2,1.4c0,1.6-0.4,3.1-1.1,4.3C55,27.2,54,27.5,53.1,28  c0-0.9-0.2-1.8-0.5-2.7C52.5,25.2,52.5,25.1,52.4,25z M57.2,33.2c-0.6-0.9-1.4-1.6-2.3-2.1c0.9-0.5,1.7-1.2,2.3-2.1c0,0,0,0,0,0  c1.4,0,2.8,0.4,4.2,1.2c0.4,0.2,0.8,0.5,1.1,0.9c-0.4,0.4-0.7,0.7-1.1,0.9C60,32.8,58.5,33.2,57.2,33.2z M58.9,21.1c0.3,0,0.7,0,1,0  c2.6,0,5.4,0.5,7.2,0.9c-0.6,2-1.8,5.2-3.4,7.5c-0.4-0.4-0.9-0.8-1.4-1.1c-1.3-0.8-2.7-1.2-4.1-1.4c0.6-1.3,0.9-2.7,0.9-4.2  C59.2,22.3,59.1,21.7,58.9,21.1z M67.8,20.1c-1.8-0.4-6-1.3-9.6-0.9c-1.5-3.3-4.5-6.7-5.7-7.9C58.9,11.7,64.5,15.1,67.8,20.1z   M56.2,19.5c-0.6,0.2-1.1,0.4-1.6,0.6c-1.3,0.8-2.4,1.8-3.2,2.9c-0.8-1.1-1.9-2.1-3.2-2.9c-0.5-0.3-1-0.5-1.6-0.6  c1.3-2.5,3.4-5.1,4.8-6.7C52.8,14.4,54.9,17,56.2,19.5z M43.7,41.1c-2.8,0.2-6.1-0.4-8.2-0.9c0.6-2,1.8-5.2,3.4-7.5  c0.4,0.4,0.9,0.8,1.4,1.1c1.3,0.8,2.7,1.2,4.1,1.4c-0.6,1.3-0.9,2.7-0.9,4.2C43.5,39.9,43.6,40.5,43.7,41.1z M44.4,27.1  c-1.4,0.2-2.8,0.6-4.1,1.4c-0.5,0.3-0.9,0.6-1.4,1.1c-1.5-2.3-2.7-5.5-3.4-7.5c2.1-0.5,5.4-1,8.2-0.9c-0.2,0.6-0.2,1.2-0.2,1.7  C43.5,24.4,43.8,25.8,44.4,27.1z M41.3,32c-0.4-0.2-0.8-0.5-1.1-0.9c0.4-0.4,0.7-0.7,1.1-0.9c1.3-0.8,2.8-1.2,4.3-1.2  c0.6,0.9,1.4,1.6,2.3,2.1c-0.9,0.5-1.6,1.2-2.3,2.1C44.1,33.2,42.6,32.8,41.3,32z M46.6,35.1c0.1,0,0.3,0,0.4,0  c0.9-0.2,1.8-0.5,2.6-0.9c0,0.9,0.2,1.8,0.5,2.7c0,0.1,0.1,0.2,0.1,0.3c-0.7,1.2-1.8,2.3-3.1,3.1c-0.4,0.2-0.9,0.4-1.4,0.5  c-0.1-0.5-0.2-1-0.2-1.4C45.5,37.8,45.9,36.3,46.6,35.1z M49.6,28c-0.8-0.4-1.6-0.7-2.6-0.9c-0.1,0-0.2,0-0.4,0  c-0.7-1.2-1.1-2.7-1.1-4.3c0-0.4,0.1-0.9,0.2-1.4c0.5,0.1,1,0.3,1.4,0.5c1.3,0.8,2.4,1.9,3.1,3.1C49.8,26,49.6,27,49.6,28z   M51.2,7.5c0.4,0,0.6,0.3,0.6,0.6s-0.3,0.6-0.6,0.6s-0.6-0.3-0.6-0.6S50.9,7.5,51.2,7.5z M50.1,11.2c-1.2,1.3-4.1,4.6-5.7,7.9  c-3.8-0.4-8.2,0.6-9.8,1C38,15,43.7,11.6,50.1,11.2z M31.3,31.1c0-3.2,0.8-6.3,2.2-9c0.5,1.6,1.9,5.9,4.1,9c-2.2,3.1-3.6,7.4-4.1,9  C32.1,37.3,31.3,34.3,31.3,31.1z M35.4,51.9c0,0.7-0.6,1.3-1.3,1.3s-1.3-0.6-1.3-1.3s0.6-1.3,1.3-1.3S35.4,51.2,35.4,51.9z M34.7,42  c1.4,0.3,4.8,1,8,1c0.6,0,1.2,0,1.8-0.1c1.5,3.3,4.4,6.6,5.6,7.9C43.6,50.5,38,47.1,34.7,42z M53.3,87c0,3.9-1.1,5.4-2.2,6.7  c-1-1.3-2.2-3.2-2.2-6.7c0-3.2,0.5-4.7,1-6.5V89c0,0.6,0.4,1,1,1s1-0.4,1-1v-9.1C52.7,82,53.3,83.7,53.3,87z M52.4,69.1  c0,0.6-0.5,1.2-1.2,1.2s-1.2-0.5-1.2-1.2s0.5-1.2,1.2-1.2S52.4,68.4,52.4,69.1z M53.4,60.1c0,1.2-1,2.2-2.2,2.2s-2.2-1-2.2-2.2  s1-2.2,2.2-2.2S53.4,58.9,53.4,60.1z M51.3,49.3c-1.4-1.6-3.6-4.2-4.9-6.7c0.6-0.2,1.1-0.4,1.6-0.6c1.3-0.7,2.4-1.7,3.2-2.9  c0.8,1.1,1.9,2.1,3.2,2.9c0.5,0.3,1,0.5,1.6,0.6C54.9,45.1,52.8,47.8,51.3,49.3z M52.6,50.9c1.2-1.3,4.1-4.6,5.6-7.9  c0.6,0.1,1.2,0.1,1.8,0.1c2.9,0,5.9-0.6,7.5-0.9c-0.1,0.5-0.5,1-0.5,1C63.6,47.5,58.5,50.5,52.6,50.9z M68.1,53.2  c-0.7,0-1.3-0.6-1.3-1.3s0.6-1.3,1.3-1.3s1.3,0.6,1.3,1.3S68.8,53.2,68.1,53.2z M78.4,31.1c0,0.6-0.4,1-1,1s-1-0.4-1-1  c0-10.4-6.5-19.9-16.3-23.6c-0.5-0.2-0.8-0.8-0.6-1.3c0.2-0.5,0.8-0.8,1.3-0.6C71.4,9.6,78.4,19.8,78.4,31.1z M28.3,43.9  C28.2,44,28,44,27.9,44c-0.4,0-0.7-0.2-0.9-0.5c-2-3.9-3-8-3-12.4c0-3.7,0.7-7.2,2.1-10.6c0.2-0.5,0.8-0.7,1.3-0.5  c0.5,0.2,0.7,0.8,0.5,1.3c-1.3,3.1-2,6.4-2,9.8c0,4,0.9,7.9,2.8,11.5C29,43,28.8,43.6,28.3,43.9z M34,58c-0.3,0-0.5-0.1-0.7-0.3  C33.1,57.5,33,57.3,33,57s0.1-0.5,0.3-0.7c0.4-0.4,1-0.4,1.4,0c0.2,0.2,0.3,0.5,0.3,0.7s-0.1,0.5-0.3,0.7C34.5,57.9,34.3,58,34,58z   M33,60c0-0.5,0.5-1,1-1s1,0.5,1,1s-0.5,1-1,1S33,60.5,33,60z M68,58c-0.3,0-0.5-0.1-0.7-0.3C67.1,57.5,67,57.3,67,57  s0.1-0.5,0.3-0.7c0.4-0.4,1-0.4,1.4,0c0.2,0.2,0.3,0.5,0.3,0.7s-0.1,0.5-0.3,0.7C68.5,57.9,68.3,58,68,58z M67,60c0-0.5,0.5-1,1-1  s1,0.5,1,1s-0.5,1-1,1S67,60.5,67,60z M39,67.4c-0.2,0.7-0.8,1.1-1.5,1.2c-0.1,0-0.1,0-0.2,0c-1,0-2.2-0.6-3.3-2  c-1.1,1.5-2.4,2.1-3.3,2.1c-0.1,0-0.1,0-0.2,0c-0.8-0.1-1.4-0.5-1.6-1.2c-0.2-0.5,0.1-1.1,0.7-1.3c0.5-0.1,0.9,0.1,1.2,0.5  c0.4,0,1.3-0.5,2.2-2.1c0,0,0.1-0.1,0.1-0.1c-0.2-0.2-0.3-0.5-0.3-0.8c0-0.8,0.6-1.4,1.4-1.4s1.4,0.6,1.4,1.4c0,0.4-0.2,0.7-0.4,1  c0.8,1.4,1.8,1.9,2.2,2c0.2-0.4,0.7-0.5,1.1-0.4C38.9,66.3,39.2,66.9,39,67.4z M39,71.4c-0.2,0.7-0.8,1.1-1.5,1.2  c-0.1,0-0.1,0-0.2,0c-1,0-2.2-0.6-3.3-2c-1.1,1.5-2.4,2.1-3.3,2.1c-0.1,0-0.1,0-0.2,0c-0.8-0.1-1.4-0.5-1.6-1.2  c-0.2-0.5,0.1-1.1,0.7-1.3c0.5-0.1,0.9,0.1,1.2,0.5c0.4,0,1.3-0.5,2.2-2.1c0.1-0.1,0.2-0.3,0.3-0.3c0.1-0.1,0.2-0.2,0.3-0.3  c0.5-0.3,1.1-0.1,1.4,0.4c0.9,1.6,1.9,2.2,2.3,2.2c0.2-0.4,0.7-0.5,1.1-0.4C38.9,70.3,39.2,70.9,39,71.4z M33.8,71.6L33,72.3  c-1.3,1.4-3,5-0.1,9.3l0.7,1.1l0.8-1c3.3-3.9,1.4-7.9,0-9.4L33.8,71.6z M33.8,79.2c-0.8-1.9-0.5-3.4,0-4.4  C34.3,75.8,34.8,77.3,33.8,79.2z M73,67.4c-0.2,0.7-0.8,1.1-1.5,1.2c-0.1,0-0.1,0-0.2,0c-1,0-2.2-0.6-3.3-2  c-1.1,1.5-2.4,2.1-3.3,2.1c-0.1,0-0.1,0-0.2,0c-0.8-0.1-1.4-0.5-1.6-1.2c-0.2-0.5,0.1-1.1,0.7-1.3c0.5-0.1,0.9,0.1,1.2,0.5  c0.4,0,1.3-0.5,2.2-2.1c0,0,0.1-0.1,0.1-0.1c-0.2-0.2-0.3-0.5-0.3-0.8c0-0.8,0.6-1.4,1.4-1.4s1.4,0.6,1.4,1.4c0,0.4-0.2,0.7-0.4,1  c0.8,1.4,1.8,1.9,2.2,2c0.2-0.4,0.7-0.5,1.1-0.4C72.9,66.3,73.2,66.9,73,67.4z M73,71.4c-0.2,0.7-0.8,1.1-1.5,1.2  c-0.1,0-0.1,0-0.2,0c-1,0-2.2-0.6-3.3-2c-1.1,1.5-2.4,2.1-3.3,2.1c-0.1,0-0.1,0-0.2,0c-0.8-0.1-1.4-0.5-1.6-1.2  c-0.2-0.5,0.1-1.1,0.7-1.3c0.5-0.1,0.9,0.1,1.2,0.5c0.4,0,1.3-0.5,2.2-2.1c0.1-0.1,0.2-0.3,0.3-0.3c0.1-0.1,0.2-0.2,0.3-0.3  c0.5-0.3,1.1-0.1,1.4,0.4c0.9,1.6,1.9,2.2,2.3,2.2c0.2-0.4,0.7-0.5,1.1-0.4C72.9,70.3,73.2,70.9,73,71.4z M67.8,71.6L67,72.3  c-1.3,1.4-3,5-0.1,9.3l0.7,1.1l0.8-1c3.3-3.9,1.4-7.9,0-9.4L67.8,71.6z M67.8,79.2c-0.8-1.9-0.5-3.4,0-4.4  C68.3,75.8,68.8,77.3,67.8,79.2z" fill="#000000" style="fill: #000000;"/></g>
			</g>
		</svg>
    